<mxfile host="app.diagrams.net" agent="Mozilla/5.0 (Windows NT 10.0; Win64; x64) AppleWebKit/537.36 (KHTML, like Gecko) Chrome/138.0.0.0 Safari/537.36" version="28.0.7">
  <diagram name="หน้า-1" id="xdBgQjJlyjDkiLtNJCGJ">
    <mxGraphModel dx="1213" dy="643" grid="0" gridSize="10" guides="1" tooltips="1" connect="1" arrows="1" fold="1" page="1" pageScale="1" pageWidth="827" pageHeight="1169" math="0" shadow="0">
      <root>
        <mxCell id="0" />
        <mxCell id="1" parent="0" />
        <mxCell id="coAUVgN8jfGoXIGX7jkR-5" value="" style="edgeStyle=orthogonalEdgeStyle;rounded=0;orthogonalLoop=1;jettySize=auto;html=1;" parent="1" source="coAUVgN8jfGoXIGX7jkR-1" target="coAUVgN8jfGoXIGX7jkR-2" edge="1">
          <mxGeometry relative="1" as="geometry" />
        </mxCell>
        <mxCell id="coAUVgN8jfGoXIGX7jkR-1" value="Start" style="ellipse;whiteSpace=wrap;html=1;" parent="1" vertex="1">
          <mxGeometry x="354" y="40" width="120" height="80" as="geometry" />
        </mxCell>
        <mxCell id="coAUVgN8jfGoXIGX7jkR-6" value="" style="edgeStyle=orthogonalEdgeStyle;rounded=0;orthogonalLoop=1;jettySize=auto;html=1;" parent="1" source="coAUVgN8jfGoXIGX7jkR-2" target="coAUVgN8jfGoXIGX7jkR-3" edge="1">
          <mxGeometry relative="1" as="geometry" />
        </mxCell>
        <mxCell id="coAUVgN8jfGoXIGX7jkR-2" value="กรุณากรอกตัวเลขจำนวนเต็ม" style="shape=parallelogram;perimeter=parallelogramPerimeter;whiteSpace=wrap;html=1;fixedSize=1;" parent="1" vertex="1">
          <mxGeometry x="314" y="160" width="200" height="60" as="geometry" />
        </mxCell>
        <mxCell id="coAUVgN8jfGoXIGX7jkR-7" value="" style="edgeStyle=orthogonalEdgeStyle;rounded=0;orthogonalLoop=1;jettySize=auto;html=1;" parent="1" source="coAUVgN8jfGoXIGX7jkR-3" target="coAUVgN8jfGoXIGX7jkR-4" edge="1">
          <mxGeometry relative="1" as="geometry" />
        </mxCell>
        <mxCell id="coAUVgN8jfGoXIGX7jkR-3" value="รับค่าตัวแปล N" style="rounded=0;whiteSpace=wrap;html=1;" parent="1" vertex="1">
          <mxGeometry x="314" y="260" width="200" height="60" as="geometry" />
        </mxCell>
        <mxCell id="coAUVgN8jfGoXIGX7jkR-9" value="" style="edgeStyle=orthogonalEdgeStyle;rounded=0;orthogonalLoop=1;jettySize=auto;html=1;" parent="1" source="coAUVgN8jfGoXIGX7jkR-4" target="coAUVgN8jfGoXIGX7jkR-8" edge="1">
          <mxGeometry relative="1" as="geometry" />
        </mxCell>
        <mxCell id="coAUVgN8jfGoXIGX7jkR-62" value="False" style="edgeLabel;html=1;align=center;verticalAlign=middle;resizable=0;points=[];" parent="coAUVgN8jfGoXIGX7jkR-9" vertex="1" connectable="0">
          <mxGeometry x="0.0101" y="1" relative="1" as="geometry">
            <mxPoint as="offset" />
          </mxGeometry>
        </mxCell>
        <mxCell id="coAUVgN8jfGoXIGX7jkR-12" value="" style="edgeStyle=orthogonalEdgeStyle;rounded=0;orthogonalLoop=1;jettySize=auto;html=1;" parent="1" source="coAUVgN8jfGoXIGX7jkR-4" target="coAUVgN8jfGoXIGX7jkR-10" edge="1">
          <mxGeometry relative="1" as="geometry" />
        </mxCell>
        <mxCell id="coAUVgN8jfGoXIGX7jkR-14" value="True" style="edgeLabel;html=1;align=center;verticalAlign=middle;resizable=0;points=[];" parent="coAUVgN8jfGoXIGX7jkR-12" vertex="1" connectable="0">
          <mxGeometry x="-0.1056" y="1" relative="1" as="geometry">
            <mxPoint as="offset" />
          </mxGeometry>
        </mxCell>
        <mxCell id="coAUVgN8jfGoXIGX7jkR-4" value="เป็นตัวเลขหรือไหม" style="rhombus;whiteSpace=wrap;html=1;" parent="1" vertex="1">
          <mxGeometry x="307" y="360" width="214" height="80" as="geometry" />
        </mxCell>
        <mxCell id="coAUVgN8jfGoXIGX7jkR-60" style="edgeStyle=orthogonalEdgeStyle;rounded=0;orthogonalLoop=1;jettySize=auto;html=1;entryX=1;entryY=0.5;entryDx=0;entryDy=0;" parent="1" source="coAUVgN8jfGoXIGX7jkR-8" target="coAUVgN8jfGoXIGX7jkR-53" edge="1">
          <mxGeometry relative="1" as="geometry">
            <mxPoint x="458" y="919" as="targetPoint" />
            <Array as="points">
              <mxPoint x="819" y="400" />
              <mxPoint x="819" y="902" />
            </Array>
          </mxGeometry>
        </mxCell>
        <mxCell id="coAUVgN8jfGoXIGX7jkR-8" value="ไม่ใช่ตัวเลข" style="shape=parallelogram;perimeter=parallelogramPerimeter;whiteSpace=wrap;html=1;fixedSize=1;" parent="1" vertex="1">
          <mxGeometry x="610" y="370" width="180" height="60" as="geometry" />
        </mxCell>
        <mxCell id="coAUVgN8jfGoXIGX7jkR-33" style="edgeStyle=orthogonalEdgeStyle;rounded=0;orthogonalLoop=1;jettySize=auto;html=1;entryX=0.5;entryY=0;entryDx=0;entryDy=0;" parent="1" source="coAUVgN8jfGoXIGX7jkR-10" target="coAUVgN8jfGoXIGX7jkR-32" edge="1">
          <mxGeometry relative="1" as="geometry" />
        </mxCell>
        <mxCell id="coAUVgN8jfGoXIGX7jkR-41" value="False" style="edgeLabel;html=1;align=center;verticalAlign=middle;resizable=0;points=[];" parent="coAUVgN8jfGoXIGX7jkR-33" vertex="1" connectable="0">
          <mxGeometry x="-0.4681" y="-1" relative="1" as="geometry">
            <mxPoint x="1" as="offset" />
          </mxGeometry>
        </mxCell>
        <mxCell id="coAUVgN8jfGoXIGX7jkR-38" style="edgeStyle=orthogonalEdgeStyle;rounded=0;orthogonalLoop=1;jettySize=auto;html=1;entryX=0.5;entryY=0;entryDx=0;entryDy=0;" parent="1" source="coAUVgN8jfGoXIGX7jkR-10" target="coAUVgN8jfGoXIGX7jkR-37" edge="1">
          <mxGeometry relative="1" as="geometry" />
        </mxCell>
        <mxCell id="coAUVgN8jfGoXIGX7jkR-43" value="True" style="edgeLabel;html=1;align=center;verticalAlign=middle;resizable=0;points=[];" parent="coAUVgN8jfGoXIGX7jkR-38" vertex="1" connectable="0">
          <mxGeometry x="-0.5882" y="-4" relative="1" as="geometry">
            <mxPoint x="1" as="offset" />
          </mxGeometry>
        </mxCell>
        <mxCell id="coAUVgN8jfGoXIGX7jkR-10" value="เป็นเลขคู่หรือไหม" style="rhombus;whiteSpace=wrap;html=1;" parent="1" vertex="1">
          <mxGeometry x="301.5" y="480" width="225" height="80" as="geometry" />
        </mxCell>
        <mxCell id="coAUVgN8jfGoXIGX7jkR-23" style="edgeStyle=orthogonalEdgeStyle;rounded=0;orthogonalLoop=1;jettySize=auto;html=1;entryX=0.5;entryY=0;entryDx=0;entryDy=0;" parent="1" source="coAUVgN8jfGoXIGX7jkR-15" target="coAUVgN8jfGoXIGX7jkR-16" edge="1">
          <mxGeometry relative="1" as="geometry">
            <Array as="points">
              <mxPoint x="134" y="635" />
            </Array>
          </mxGeometry>
        </mxCell>
        <mxCell id="coAUVgN8jfGoXIGX7jkR-63" style="edgeStyle=orthogonalEdgeStyle;rounded=0;orthogonalLoop=1;jettySize=auto;html=1;" parent="1" source="coAUVgN8jfGoXIGX7jkR-15" target="coAUVgN8jfGoXIGX7jkR-47" edge="1">
          <mxGeometry relative="1" as="geometry" />
        </mxCell>
        <mxCell id="coAUVgN8jfGoXIGX7jkR-15" value="i = N ถึง 0 ลดทีละ 2" style="rhombus;whiteSpace=wrap;html=1;" parent="1" vertex="1">
          <mxGeometry x="166" y="595" width="223" height="80" as="geometry" />
        </mxCell>
        <mxCell id="coAUVgN8jfGoXIGX7jkR-40" style="edgeStyle=orthogonalEdgeStyle;rounded=0;orthogonalLoop=1;jettySize=auto;html=1;entryX=0;entryY=0.5;entryDx=0;entryDy=0;" parent="1" source="coAUVgN8jfGoXIGX7jkR-16" target="coAUVgN8jfGoXIGX7jkR-37" edge="1">
          <mxGeometry relative="1" as="geometry">
            <Array as="points">
              <mxPoint x="29" y="716" />
              <mxPoint x="29" y="557" />
            </Array>
          </mxGeometry>
        </mxCell>
        <mxCell id="coAUVgN8jfGoXIGX7jkR-16" value="แสดงค่า i ทีละรอบ" style="shape=parallelogram;perimeter=parallelogramPerimeter;whiteSpace=wrap;html=1;fixedSize=1;" parent="1" vertex="1">
          <mxGeometry x="44" y="686" width="180" height="60" as="geometry" />
        </mxCell>
        <mxCell id="coAUVgN8jfGoXIGX7jkR-29" style="edgeStyle=orthogonalEdgeStyle;rounded=0;orthogonalLoop=1;jettySize=auto;html=1;entryX=0.539;entryY=0.007;entryDx=0;entryDy=0;entryPerimeter=0;" parent="1" source="coAUVgN8jfGoXIGX7jkR-25" target="coAUVgN8jfGoXIGX7jkR-28" edge="1">
          <mxGeometry relative="1" as="geometry">
            <mxPoint x="678.111083984375" y="678.4444885253906" as="targetPoint" />
            <Array as="points">
              <mxPoint x="679" y="635" />
            </Array>
          </mxGeometry>
        </mxCell>
        <mxCell id="coAUVgN8jfGoXIGX7jkR-64" style="edgeStyle=orthogonalEdgeStyle;rounded=0;orthogonalLoop=1;jettySize=auto;html=1;entryX=0.5;entryY=0;entryDx=0;entryDy=0;" parent="1" source="coAUVgN8jfGoXIGX7jkR-25" target="coAUVgN8jfGoXIGX7jkR-50" edge="1">
          <mxGeometry relative="1" as="geometry" />
        </mxCell>
        <mxCell id="coAUVgN8jfGoXIGX7jkR-25" value="i = 1 ถึง N เพิ่มทีละ 2" style="rhombus;whiteSpace=wrap;html=1;" parent="1" vertex="1">
          <mxGeometry x="435" y="595" width="223" height="80" as="geometry" />
        </mxCell>
        <mxCell id="coAUVgN8jfGoXIGX7jkR-36" style="edgeStyle=orthogonalEdgeStyle;rounded=0;orthogonalLoop=1;jettySize=auto;html=1;entryX=1;entryY=0.5;entryDx=0;entryDy=0;" parent="1" source="coAUVgN8jfGoXIGX7jkR-28" target="coAUVgN8jfGoXIGX7jkR-32" edge="1">
          <mxGeometry relative="1" as="geometry">
            <Array as="points">
              <mxPoint x="784" y="716" />
              <mxPoint x="784" y="557" />
            </Array>
          </mxGeometry>
        </mxCell>
        <mxCell id="coAUVgN8jfGoXIGX7jkR-28" value="แสดงค่า i ทีละรอบ" style="shape=parallelogram;perimeter=parallelogramPerimeter;whiteSpace=wrap;html=1;fixedSize=1;" parent="1" vertex="1">
          <mxGeometry x="582" y="686" width="180" height="60" as="geometry" />
        </mxCell>
        <mxCell id="coAUVgN8jfGoXIGX7jkR-35" style="edgeStyle=orthogonalEdgeStyle;rounded=0;orthogonalLoop=1;jettySize=auto;html=1;" parent="1" source="coAUVgN8jfGoXIGX7jkR-32" target="coAUVgN8jfGoXIGX7jkR-25" edge="1">
          <mxGeometry relative="1" as="geometry" />
        </mxCell>
        <mxCell id="coAUVgN8jfGoXIGX7jkR-32" value="" style="ellipse;whiteSpace=wrap;html=1;" parent="1" vertex="1">
          <mxGeometry x="535" y="547" width="23" height="20" as="geometry" />
        </mxCell>
        <mxCell id="coAUVgN8jfGoXIGX7jkR-39" value="" style="edgeStyle=orthogonalEdgeStyle;rounded=0;orthogonalLoop=1;jettySize=auto;html=1;" parent="1" source="coAUVgN8jfGoXIGX7jkR-37" target="coAUVgN8jfGoXIGX7jkR-15" edge="1">
          <mxGeometry relative="1" as="geometry" />
        </mxCell>
        <mxCell id="coAUVgN8jfGoXIGX7jkR-37" value="" style="ellipse;whiteSpace=wrap;html=1;" parent="1" vertex="1">
          <mxGeometry x="266" y="547" width="23" height="20" as="geometry" />
        </mxCell>
        <mxCell id="5HzgyeS_A-YlkUWt8IKp-2" style="edgeStyle=orthogonalEdgeStyle;rounded=0;orthogonalLoop=1;jettySize=auto;html=1;entryX=0;entryY=0;entryDx=0;entryDy=0;" edge="1" parent="1" source="coAUVgN8jfGoXIGX7jkR-47" target="coAUVgN8jfGoXIGX7jkR-53">
          <mxGeometry relative="1" as="geometry" />
        </mxCell>
        <mxCell id="coAUVgN8jfGoXIGX7jkR-47" value="แสดงเลขคู่" style="shape=parallelogram;perimeter=parallelogramPerimeter;whiteSpace=wrap;html=1;fixedSize=1;" parent="1" vertex="1">
          <mxGeometry x="184" y="779" width="187" height="60" as="geometry" />
        </mxCell>
        <mxCell id="5HzgyeS_A-YlkUWt8IKp-1" style="edgeStyle=orthogonalEdgeStyle;rounded=0;orthogonalLoop=1;jettySize=auto;html=1;entryX=1;entryY=0;entryDx=0;entryDy=0;" edge="1" parent="1" source="coAUVgN8jfGoXIGX7jkR-50" target="coAUVgN8jfGoXIGX7jkR-53">
          <mxGeometry relative="1" as="geometry" />
        </mxCell>
        <mxCell id="coAUVgN8jfGoXIGX7jkR-50" value="แสดงเลขคี่" style="shape=parallelogram;perimeter=parallelogramPerimeter;whiteSpace=wrap;html=1;fixedSize=1;" parent="1" vertex="1">
          <mxGeometry x="453" y="779" width="187" height="60" as="geometry" />
        </mxCell>
        <mxCell id="coAUVgN8jfGoXIGX7jkR-59" value="" style="edgeStyle=orthogonalEdgeStyle;rounded=0;orthogonalLoop=1;jettySize=auto;html=1;" parent="1" source="coAUVgN8jfGoXIGX7jkR-53" target="coAUVgN8jfGoXIGX7jkR-57" edge="1">
          <mxGeometry relative="1" as="geometry" />
        </mxCell>
        <mxCell id="coAUVgN8jfGoXIGX7jkR-53" value="" style="ellipse;whiteSpace=wrap;html=1;" parent="1" vertex="1">
          <mxGeometry x="400" y="890" width="27" height="23" as="geometry" />
        </mxCell>
        <mxCell id="coAUVgN8jfGoXIGX7jkR-57" value="End" style="ellipse;whiteSpace=wrap;html=1;" parent="1" vertex="1">
          <mxGeometry x="354" y="964" width="120" height="80" as="geometry" />
        </mxCell>
      </root>
    </mxGraphModel>
  </diagram>
</mxfile>
